inDegrees=no
num_controls=7
num_derivatives=13
num_iterations=135
num_multipliers=7
num_parameters=0
num_slacks=7
num_states=26
objective=0.475948
objective_accelerations=0.045955
objective_balance=0.003655
objective_effort=0.041808
objective_height=0.378843
objective_ligament=0.005686
solver_duration=1821.474718
status=Solve_Succeeded
success=true
DataType=double
version=3
OpenSimVersion=4.5
endheader
time	/jointset/ground_pelvis/pelvis_tilt/value	/jointset/ground_pelvis/pelvis_tx/value	/jointset/ground_pelvis/pelvis_ty/value	/jointset/hip_l/hip_flexion_l/value	/jointset/hip_l/hip_adduction_l/value	/jointset/hip_l/hip_rotation_l/value	/jointset/back/lumbar_extension/value	/jointset/patellofemoral_l/patellar_flexion_l/value	/jointset/knee_l/knee_flexion_l/value	/jointset/knee_l/knee_adduction_l/value	/jointset/knee_l/knee_rotation_l/value	/jointset/ankle_l/ankle_angle_l/value	/jointset/subtalar_l/subtalar_angle_l/value	/jointset/ground_pelvis/pelvis_tilt/speed	/jointset/ground_pelvis/pelvis_tx/speed	/jointset/ground_pelvis/pelvis_ty/speed	/jointset/hip_l/hip_flexion_l/speed	/jointset/hip_l/hip_adduction_l/speed	/jointset/hip_l/hip_rotation_l/speed	/jointset/back/lumbar_extension/speed	/jointset/patellofemoral_l/patellar_flexion_l/speed	/jointset/knee_l/knee_flexion_l/speed	/jointset/knee_l/knee_adduction_l/speed	/jointset/knee_l/knee_rotation_l/speed	/jointset/ankle_l/ankle_angle_l/speed	/jointset/subtalar_l/subtalar_angle_l/speed	/forceset/tau_hip_flexion_l	/forceset/tau_hip_adduction_l	/forceset/tau_hip_rotation_l	/forceset/tau_knee_flexion_l	/forceset/tau_ankle_angle_l	/forceset/tau_subtalar_angle_l	/forceset/tau_lumbar_extension	lambda_cid13_p0	lambda_cid13_p1	lambda_cid13_p2	lambda_cid13_p3	lambda_cid13_p4	lambda_cid13_p5	lambda_cid14_p0	/jointset/ground_pelvis/pelvis_tilt/accel	/jointset/ground_pelvis/pelvis_tx/accel	/jointset/ground_pelvis/pelvis_ty/accel	/jointset/hip_l/hip_flexion_l/accel	/jointset/hip_l/hip_adduction_l/accel	/jointset/hip_l/hip_rotation_l/accel	/jointset/back/lumbar_extension/accel	/jointset/patellofemoral_l/patellar_flexion_l/accel	/jointset/knee_l/knee_flexion_l/accel	/jointset/knee_l/knee_adduction_l/accel	/jointset/knee_l/knee_rotation_l/accel	/jointset/ankle_l/ankle_angle_l/accel	/jointset/subtalar_l/subtalar_angle_l/accel	gamma_cid13_p0	gamma_cid13_p1	gamma_cid13_p2	gamma_cid13_p3	gamma_cid13_p4	gamma_cid13_p5	gamma_cid14_p0
0.5	-0.1008830180414087	-0.04480413599469706	0.8010955780700179	0.9560646818474607	-0.3290587485412983	-0.07416884834897348	-0.7947199410776015	0.9411619549725346	0.9411619549725837	-0.09877456249737505	-0.1745110411155445	0.1516749314670558	0.01494689116960714	-0.1411430526960223	-0.1584511796476316	-0.4369919121197763	1.658702346323284	-0.02548250881142882	0.5698699347063361	-0.8309426034879778	1.831878935983542	1.831878935983556	0.1636679240353014	0.0001398042224556823	0.4395211057481313	0.1230808967137067	-0.2765719007186332	0.02265388287800837	-0.005329331175812432	-0.2510935088603186	0.08979139929981321	0.04327557996455481	0.3314137246145985	-15.27857688021106	-17.52003881537045	3.938713828202107	-10.30188240852355	-701.4472778441306	-72.46255282143173	-8.937872874802173	0.3127961065054026	0.7050784042438372	-0.206769025814238	-1.550349107613513	0.33775497323871	-0.5418216901352813	1.956589621271871	-1.444712999170308	-1.444712999170306	-0.1981432861765164	-0.00597561787014477	-0.2800518008266574	0.3502382837843763	-2.744011971668431e-07	-1.186809637900355e-07	1.706776042617342e-06	1.674251969832774e-07	-3.037447505741274e-07	-4.400316455527635e-08	-2.348392518605251e-07
0.51	-0.1022786070708493	-0.04635339348086352	0.7967162775040942	0.9725717845081834	-0.3292975735573381	-0.06849612320855285	-0.8029308078224502	0.9594057240695245	0.9594057240695054	-0.09715060296406777	-0.1745097765462391	0.1560550547649205	0.01619383877400928	-0.1379544299138175	-0.1514014901036881	-0.4387701262621624	1.642498169705852	-0.02229217181185269	0.564612781409116	-0.8111565392680724	1.816620736451903	1.816620736451914	0.1611180862828945	0.0001124245214703355	0.436431019317945	0.1262782079767836	-0.2827453009488271	0.02288007290537356	-0.005453147983728718	-0.2549675549826754	0.08892742564530491	0.04324374311865634	0.3375895836108604	-15.82507069708532	-17.33659426606958	3.82502033562254	-10.08306664479061	-706.0638697875297	-72.26239732402776	-8.188266039536023	0.3249184564763619	0.7047718733006626	-0.148695344423539	-1.688488292564519	0.3079851132907375	-0.5272253897200174	2.000745754422221	-1.604449338176555	-1.604449338176983	-0.2842783430342964	-0.0008870004184744571	-0.3343621896487705	0.2997320859632339	-2.659586538987019e-07	-1.193109895697395e-07	1.671761010261167e-06	1.629509274184689e-07	-2.914934257789794e-07	-1.247265567492186e-08	-2.315871768407787e-07
0.52	-0.1036417052539891	-0.04783218254282433	0.792322125249552	0.9889102381319799	-0.329504832793387	-0.06287788224914531	-0.8109415877386855	0.9774892959895951	0.9774892959895075	-0.09555231667293909	-0.1745087393447829	0.1604021021733766	0.01747181039872098	-0.1346448834356769	-0.1443574948065037	-0.4399622498434633	1.624972538938158	-0.01916935281332994	0.5589730985037099	-0.7909252377652715	1.79983950059963	1.799839500599638	0.1585332756000274	9.433065225535437e-05	0.4329059278663922	0.1292857007756162	-0.2889187011790207	0.02310626293273993	-0.005576964791661227	-0.2588416011050322	0.08806345199079685	0.04321190627275958	0.3437654426071223	-16.37334454393098	-17.15358890588542	3.712256070814508	-9.913104926709018	-710.7394633823251	-72.1177906578161	-7.448811803866057	0.3369808456925829	0.7039395548920265	-0.08955091359720707	-1.814639937666161	0.3242513730280321	-0.6183276117725244	2.045637077851056	-1.749320263297048	-1.749320263297052	-0.2051378722685607	-0.004118451516074496	-0.3670528050999567	0.3122745909355095	-2.62475607339305e-07	-1.655131680225163e-07	1.630110944372417e-06	1.535421466147742e-07	-2.848492899331186e-07	5.072952359161938e-09	-2.334164115700996e-07
0.53	-0.1049711241505007	-0.04924061414735259	0.7879190094487594	1.005066904017392	-0.3296812526138294	-0.05731808160318327	-0.8187479651402795	0.9953975534121899	0.9953975534122312	-0.09397998665124084	-0.1745080470117125	0.1647117799125286	0.01877884927570998	-0.1312209787664905	-0.1373349219014048	-0.4405605495019133	1.606147211040506	-0.01612719863002916	0.5529271397347668	-0.7702880649147439	1.781567558670087	1.781567558670116	0.1559271876666018	4.404207390811195e-05	0.4289634276065845	0.1320892172982818	-0.2948897663209366	0.02323825400261084	-0.005651260296787404	-0.262796110774342	0.08715017668235796	0.04303910196104809	0.3497275901326354	-16.9429246615857	-16.90056602684995	3.582542430109499	-9.639570474548441	-715.3564520871525	-71.8857221858391	-6.743939660895688	0.3477587424712404	0.7005315079912598	-0.02997164188832915	-1.948525320042586	0.2920937651735	-0.6069305707092947	2.082084034483366	-1.90274806971306	-1.902748069709859	-0.2891902426851173	-0.005178099563005143	-0.4177769527088263	0.2593032526169299	-2.52196699616053e-07	-1.591224608635023e-07	1.588591217296364e-06	1.491769871194528e-07	-2.716771451856281e-07	3.657507399981909e-08	-2.283369782260925e-07
